<?xml version="1.0" encoding="utf-8"?>
<!-- Generator: Adobe Illustrator 19.0.0, SVG Export Plug-In . SVG Version: 6.00 Build 0)  -->
<svg version="1.1" id="Layer_1" xmlns="http://www.w3.org/2000/svg" xmlns:xlink="http://www.w3.org/1999/xlink" x="0px" y="0px"
	 viewBox="-444 6 512 512" style="enable-background:new -444 6 512 512;" xml:space="preserve">
<style type="text/css">
	.st0{fill:#F0F0F0;}
	.st1{fill:#D80027;}
	.st2{fill:#0052B4;}
</style>
<path class="st0" d="M-188,6c31.3,0,61.3,5.6,89,15.9c0,54.8,0,444.6,0,480.2c-27.7,10.3-57.7,15.9-89,15.9
	c-31.3,0-61.3-5.6-89-15.9c0-35.6,0-426.8,0-480.2C-249.3,11.6-219.3,6-188,6z"/>
<path class="st1" d="M68,262C68,151.9-1.5,58.1-99,21.9v480.2C-1.5,465.9,68,372.1,68,262z"/>
<path class="st2" d="M-444,262c0,110.1,69.5,203.9,167,240.1V21.9C-374.5,58.1-444,151.9-444,262z"/>
</svg>
